<?xml version="1.0" standalone="no"?>
<!DOCTYPE svg PUBLIC "-//W3C//DTD SVG 20010904//EN"
 "http://www.w3.org/TR/2001/REC-SVG-20010904/DTD/svg10.dtd">
<svg version="1.0" xmlns="http://www.w3.org/2000/svg"
 width="250.000000pt" height="250.000000pt" viewBox="0 0 250.000000 250.000000"
 preserveAspectRatio="xMidYMid meet">
<metadata>
Created by potrace 1.11, written by Peter Selinger 2001-2013
</metadata>
<g transform="translate(0.000000,250.000000) scale(0.100000,-0.100000)"
fill="#000000" stroke="none">
<path d="M445 1888 c-80 -28 -133 -100 -142 -192 -4 -41 0 -60 20 -98 l24 -48
-173 0 -174 0 0 -178 0 -177 98 -295 99 -295 116 -3 116 -3 10 33 9 33 13 -33
14 -32 249 2 250 3 15 47 c12 41 18 48 41 48 23 0 28 -6 41 -47 l14 -48 279
-3 c188 -1 282 1 286 8 5 8 15 8 34 0 36 -13 489 -13 539 1 46 12 109 67 130
112 27 57 28 120 1 177 l-23 50 59 0 60 0 0 300 0 300 -91 0 c-90 0 -91 0 -84
23 28 93 9 188 -51 250 -68 70 -73 71 -336 75 l-237 4 -3 -74 -3 -73 -23 73
-23 72 -562 -1 c-364 0 -573 -4 -592 -11z m305 -320 c0 -17 -1 -29 -3 -27 -2
2 -11 16 -20 32 -17 26 -17 27 3 27 16 0 20 -7 20 -32z m394 20 c-4 -6 -15
-36 -25 -67 l-18 -56 0 68 c-1 65 0 67 25 67 16 0 23 -4 18 -12z m-394 -268
l0 -70 -87 1 c-66 1 -81 3 -59 9 45 14 102 58 122 95 10 19 20 35 21 35 2 0 3
-31 3 -70z m708 3 c28 -74 29 -73 -32 -73 -31 0 -56 4 -56 10 0 5 7 28 16 50
20 50 55 56 72 13z m597 -70 l30 -10 -36 -7 c-36 -6 -110 -66 -122 -96 -4 -11
-11 -8 -31 17 -29 35 -82 70 -124 83 -18 5 17 9 101 9 110 1 127 3 127 17 0
12 4 14 13 7 6 -6 26 -15 42 -20z m-756 -140 l0 -138 -38 115 c-21 63 -42 125
-45 138 -7 21 -4 22 38 22 l46 0 -1 -137z"/>
</g>
</svg>
